<svg id="Layer_1" data-name="Layer 1" xmlns="http://www.w3.org/2000/svg" viewBox="0 0 120 120">
  <title>_</title>
  <g>
    <path d="M97.85,120H22.15A20.83,20.83,0,0,1,1.34,99.19V0L15.85,14.51,28.46,1.89,41.08,14.51,53.69,1.89,66.31,14.51,80.81,0V59.45h37.85V99.19A20.83,20.83,0,0,1,97.85,120Zm0-3.78a17.07,17.07,0,0,0,17-17v-36H80.81v36A17.05,17.05,0,0,0,97.85,116.22ZM5.12,9.14V99.19a17,17,0,0,0,17,17H85.89a20.83,20.83,0,0,1-8.86-17v-90L66.31,19.86,53.69,7.24,41.08,19.86,28.46,7.24,15.85,19.86Z"/>
    <rect x="34.77" y="59.45" width="31.54" height="3.78"/>
    <rect x="34.77" y="40.52" width="31.54" height="3.78"/>
    <rect x="15.85" y="78.37" width="50.46" height="3.78"/>
    <rect x="15.85" y="97.29" width="50.46" height="3.78"/>
    <path d="M20.53,61.34v-3a11.51,11.51,0,0,1-4.68-1.18l.83-3.5a9.75,9.75,0,0,0,4.59,1.21c1.67,0,2.76-.74,2.76-2s-.93-2-3-2.82c-3-1.24-5-2.79-5-5.61,0-2.61,1.77-4.68,4.77-5.37v-3h2.92v2.76a9.5,9.5,0,0,1,4.06,1l-.84,3.34a8.61,8.61,0,0,0-3.94-1c-1.82,0-2.51.87-2.51,1.8s.87,1.68,3.35,2.73c3.38,1.39,4.68,3.13,4.68,5.76s-1.83,5-5,5.58v3.26Z"/>
  </g>
</svg>
