<svg xmlns="http://www.w3.org/2000/svg" viewBox="0 0 32 32"><defs><style>.cls-1{fill:#231f20;}</style></defs><g id="shopping_online" data-name="shopping online"><path class="cls-1" d="M29,24.07a1,1,0,0,0-1,1A1.93,1.93,0,0,1,26.07,27H5.93A1.93,1.93,0,0,1,4,25.07V6.93A1.93,1.93,0,0,1,5.93,5H8A1,1,0,0,0,8,3H5.93A3.93,3.93,0,0,0,2,6.93V25.07A3.93,3.93,0,0,0,5.93,29H26.07A3.93,3.93,0,0,0,30,25.07,1,1,0,0,0,29,24.07Z"/><path class="cls-1" d="M26.07,3H12a1,1,0,0,0,0,2H26.07A1.93,1.93,0,0,1,28,6.93V21a1,1,0,0,0,2,0V6.93A3.93,3.93,0,0,0,26.07,3Z"/><path class="cls-1" d="M11.88,25h8.24a1.85,1.85,0,0,0,1.37-.62A2.06,2.06,0,0,0,22,22.8l-.81-7.06A1.91,1.91,0,0,0,19.31,14H19a3.84,3.84,0,0,0-.88-1.94A2.91,2.91,0,0,0,16,11a2.91,2.91,0,0,0-2.13,1.06A3.84,3.84,0,0,0,13,14h-.3a1.91,1.91,0,0,0-1.87,1.74L10,22.8a2.06,2.06,0,0,0,.5,1.58A1.85,1.85,0,0,0,11.88,25Zm3.49-11.62A1,1,0,0,1,16,13a1,1,0,0,1,.63.38A1.79,1.79,0,0,1,17,14H15A1.79,1.79,0,0,1,15.37,13.38ZM12.8,16h6.4L20,23H12Z"/><path class="cls-1" d="M25,7a1,1,0,0,0-1-1h0a1,1,0,1,0,1,1Z"/><path class="cls-1" d="M22,7a1,1,0,0,0-1-1h0a1,1,0,1,0,1,1Z"/><path class="cls-1" d="M19,7a1,1,0,0,0-1-1h0a1,1,0,1,0,1,1Z"/></g></svg>