<svg xmlns="http://www.w3.org/2000/svg" viewBox="0 0 64 64"><title>cart</title><g id="cart"><path d="M57.71,43.06c3.77-3.13,1.93-9.09,0-8l-2.59,1.5L43.22,16a1,1,0,0,0-1.74,1l2.41,4.17C-7.83,51,78.45,1.18,26.58,31.13c-.75-1.28,2.91,5.05-8.5-14.71l5.19-3c2.13,3.69,2.11,4,2.86,4,.38,0,.1.09,5.7-3.14a1,1,0,0,0,.37-1.36l-2-3.46,5.19-3,1.89,3.27a1,1,0,0,0,1.74-1L36.63,4.55a1,1,0,0,0-1.37-.37L17.08,14.68l-2-3.46A6,6,0,0,0,6.88,9l-2.6,1.5a1,1,0,0,0,1,1.74l2.6-1.51a4,4,0,0,1,5.46,1.47l3.54,6.13a7,7,0,0,0-1.74,9l5.35,9.27a1,1,0,0,0,1.74-1c-5.65-9.78-6.55-10.47-5.85-13.06a4.92,4.92,0,0,1,1.51-2.45L32.29,45a5,5,0,0,1-5.91-2.25L24.19,39a1,1,0,0,0-1.74,1l2.19,3.79a7,7,0,0,0,8.67,3l.9,1.56a6,6,0,1,0,9.52,2.9l4.06-2.34a1,1,0,0,0-1-1.74l-3.95,2.28a6.5,6.5,0,0,0-2.55-2L57.74,37.38a4,4,0,0,1-1.85,4.53l-5.64,3.26a1,1,0,0,0,1,1.74L56,44.15c2.08,3.6,2.1,4,2.87,4a1,1,0,0,0,.87-1.5ZM30,13,26.5,15,25,12.42l3.47-2Zm6,34.35L27.58,32.87l5.19-3,2,3.46a1,1,0,0,0,1.36.37c5.58-3.22,5.52-3.06,5.67-3.61s.07-.46-2.1-4.22l5.19-3,8.5,14.71C33.19,49.26,37.92,46.65,36,47.36Zm3.51-17.9-3.46,2-1.5-2.59,3.46-2ZM41.86,54a4,4,0,1,1-4.45-5A4,4,0,0,1,41.86,54Z"/><path d="M39.53,13.59a1,1,0,1,0,1.7-1.07L41,12.14a1,1,0,0,0-1.74,1Z"/></g></svg>